{"asset":{"version":"2.0","generator":"THREE.GLTFExporter r175"},"scenes":[{"name":"AuxScene","nodes":[6]}],"scene":0,"nodes":[{"mesh":0},{"mesh":1},{"matrix":[0.9004288567255156,0,-0.9004288567255158,0,0,-1.2733987011333248,0,0,0.9004288567255158,0,0.9004288567255156,0,0,0,0,1],"children":[0,1]},{"children":[2]},{"matrix":[1,0,0,0,0,1,0,0,0,0,1,0,-33.795545294342816,50.076768706169204,31.195888165520394,1],"children":[3]},{"children":[4]},{"children":[5]}],"bufferViews":[{"buffer":0,"byteOffset":0,"byteLength":8496,"target":34962,"byteStride":12},{"buffer":0,"byteOffset":8496,"byteLength":5664,"target":34962,"byteStride":8},{"buffer":0,"byteOffset":14160,"byteLength":8496,"target":34962,"byteStride":12},{"buffer":0,"byteOffset":22656,"byteLength":7632,"target":34962,"byteStride":12},{"buffer":0,"byteOffset":30288,"byteLength":5088,"target":34962,"byteStride":8},{"buffer":0,"byteOffset":35376,"byteLength":7632,"target":34962,"byteStride":12}],"buffers":[{"byteLength":43008,"uri":"data:application/octet-stream;base64,"}],"accessors":[{"bufferView":0,"componentType":5126,"count":708,"max":[58.47475051879883,78.83000183105469,4.599999904632568],"min":[-0.31470787525177,52.04999923706055,-0.6000000238418579],"type":"VEC3"},{"bufferView":1,"componentType":5126,"count":708,"max":[78.81448364257812,78.52999877929688],"min":[-0.31470787525177,-3.5999999046325684],"type":"VEC2"},{"bufferView":2,"componentType":5126,"count":708,"max":[0.9951835870742798,1,1],"min":[-0.9952128529548645,-1,-1],"type":"VEC3"},{"bufferView":3,"componentType":5126,"count":636,"max":[26.530000686645508,52.67478561401367,4.599999904632568],"min":[-0.30000001192092896,-0.3146435618400574,-0.6000000238418579],"type":"VEC3"},{"bufferView":4,"componentType":5126,"count":636,"max":[52.67478561401367,52.36000061035156],"min":[-0.3146435618400574,-3.5999999046325684],"type":"VEC2"},{"bufferView":5,"componentType":5126,"count":636,"max":[0.9999998211860657,0.9951603412628174,1],"min":[-0.9999998211860657,-0.9952552318572998,-1],"type":"VEC3"}],"materials":[{"pbrMetallicRoughness":{"baseColorFactor":[0,0.13286832154414627,1,1],"metallicFactor":1,"roughnessFactor":0.2},"doubleSided":true,"extensions":{"KHR_materials_clearcoat":{"clearcoatFactor":0.1,"clearcoatRoughnessFactor":0}}}],"meshes":[{"primitives":[{"mode":4,"attributes":{"POSITION":0,"TEXCOORD_0":1,"NORMAL":2},"material":0}]},{"primitives":[{"mode":4,"attributes":{"POSITION":3,"TEXCOORD_0":4,"NORMAL":5},"material":0}]}],"extensionsUsed":["KHR_materials_clearcoat"]}