{"asset":{"version":"2.0","generator":"THREE.GLTFExporter r175"},"scenes":[{"name":"AuxScene","nodes":[6]}],"scene":0,"nodes":[{"mesh":0},{"mesh":1},{"matrix":[0.649914320943518,0,-0.6499143209435181,0,0,-0.9191176470588236,0,0,0.6499143209435181,0,0.649914320943518,0,0,0,0,1],"children":[0,1]},{"children":[2]},{"matrix":[1,0,0,0,0,1,0,0,0,0,1,0,-33.795545294342816,50.076768706169204,31.195888165520394,1],"children":[3]},{"children":[4]},{"children":[5]}],"bufferViews":[{"buffer":0,"byteOffset":0,"byteLength":93744,"target":34962,"byteStride":12},{"buffer":0,"byteOffset":93744,"byteLength":62496,"target":34962,"byteStride":8},{"buffer":0,"byteOffset":156240,"byteLength":93744,"target":34962,"byteStride":12},{"buffer":0,"byteOffset":249984,"byteLength":19296,"target":34962,"byteStride":12},{"buffer":0,"byteOffset":269280,"byteLength":12864,"target":34962,"byteStride":8},{"buffer":0,"byteOffset":282144,"byteLength":19296,"target":34962,"byteStride":12}],"buffers":[{"byteLength":301440,"uri":"data:application/octet-stream;base64,"}],"accessors":[{"bufferView":0,"componentType":5126,"count":7812,"max":[100.30000305175781,109.16695404052734,4.599999904632568],"min":[2.0757367610931396,-0.3002929091453552,-0.6000000238418579],"type":"VEC3"},{"bufferView":1,"componentType":5126,"count":7812,"max":[109.16695404052734,108.80000305175781],"min":[2.0757367610931396,-3.5999999046325684],"type":"VEC2"},{"bufferView":2,"componentType":5126,"count":7812,"max":[1,0.9999682307243347,1],"min":[-1,-0.9991542100906372,-1],"type":"VEC3"},{"bufferView":3,"componentType":5126,"count":1608,"max":[47.70000076293945,109.26734161376953,4.599999904632568],"min":[-0.30000001192092896,26.132856369018555,-0.6000000238418579],"type":"VEC3"},{"bufferView":4,"componentType":5126,"count":1608,"max":[109.26734161376953,108.9000015258789],"min":[-0.30000001192092896,-3.5999999046325684],"type":"VEC2"},{"bufferView":5,"componentType":5126,"count":1608,"max":[0.9999987483024597,0.8783599138259888,1],"min":[-0.9999828934669495,-0.8682511448860168,-1],"type":"VEC3"}],"materials":[{"pbrMetallicRoughness":{"baseColorFactor":[0,0.13286832154414627,1,1],"metallicFactor":1,"roughnessFactor":0.2},"doubleSided":true,"extensions":{"KHR_materials_clearcoat":{"clearcoatFactor":0.1,"clearcoatRoughnessFactor":0}}}],"meshes":[{"primitives":[{"mode":4,"attributes":{"POSITION":0,"TEXCOORD_0":1,"NORMAL":2},"material":0}]},{"primitives":[{"mode":4,"attributes":{"POSITION":3,"TEXCOORD_0":4,"NORMAL":5},"material":0}]}],"extensionsUsed":["KHR_materials_clearcoat"]}