# Alias OBJ Model File
# Exported from SketchUp, (c) 2000-2012 Trimble Navigation Limited
# File units = inches

mtllib Sweethome3D.mtl

g Mesh1 Model

usemtl M_47262621_f9ea0000_d4ed_11e8_8a68_4722d7c68f16
v 0.866549 7.052 -0.517551
vt 0.070423 0.263877
vn 0 -6.38378e-16 -1
v 0.923406 15.7211 -0.517551
vt 0.0736502 0.755939
v 8.43484 20.021 -0.517551
vt 0.5 1
v 15.9527 15.4952 -0.517551
vt 0.926713 0.743115
v 15.9527 6.98022 -0.517551
vt 0.926713 0.259802
v 8.39834 2.6775 -0.517551
vt 0.497928 0.0155798
f 1/1/1 2/2/1 3/3/1 4/4/1 5/5/1 6/6/1 

vn -0.863453 0.50443 1.93138e-16
vn -0.868303 -0.496034 -3.10835e-17
v 0.866549 7.052 0.587449
v 0.923406 15.7211 0.587449
f 2/2/2 1/1/3 7/1/3 8/2/2 

vn -0.00422148 -0.999991 -2.80168e-16
v 8.39834 2.6775 0.587449
f 1/1/3 6/6/4 9/6/4 7/1/3 

vn 0.864558 -0.502533 -2.48804e-16
v 15.9527 6.98022 0.587449
f 6/6/4 5/5/5 10/5/5 9/6/4 

vn 0.870563 0.492056 1.67382e-16
v 15.9527 15.4952 0.587449
f 5/5/5 4/4/6 11/4/6 10/5/5 

vn 0.0109922 0.99994 3.62092e-16
v 8.43484 20.021 0.587449
f 4/4/6 3/3/7 12/3/7 11/4/6 

f 3/3/7 2/2/2 8/2/2 12/3/7 

vn 0 6.38378e-16 1
f 8/2/8 7/1/8 9/6/8 10/5/8 11/4/8 12/3/8 

