<svg xmlns="http://www.w3.org/2000/svg" width="100" height="27" viewBox="0 0 100 27">
  <path d="M3.8,15.8V13.5h2.4c0.8,0,1.4,0.1,1.8,0.2s0.7,0.3,1,0.6c0.2,0.3,0.4,0.6,0.5,1c0.1,0.4,0.1,0.8,0.1,1.3c0,0.6-0.1,1.1-0.2,1.6
	c-0.1,0.5-0.4,0.9-0.7,1.2s-0.7,0.6-1.2,0.7c-0.5,0.1-1.1,0.2-1.8,0.2H3.8v-2.3H5c0.6,0,1-0.1,1.4-0.2c0.4-0.1,0.6-0.3,0.8-0.6
	c0.2-0.2,0.3-0.6,0.3-1c0-0.4-0.1-0.7-0.3-1c-0.2-0.2-0.5-0.4-0.8-0.5c-0.4-0.1-0.8-0.2-1.4-0.2H3.8z M0,26.1V0.9h8.9
	c1.1,0,2.1,0.1,3,0.4c0.9,0.3,1.7,0.7,2.4,1.2c0.7,0.5,1.2,1.2,1.6,2c0.4,0.8,0.6,1.7,0.6,2.7c0,1-0.2,1.9-0.5,2.8
	c-0.4,0.8-0.9,1.6-1.5,2.2c-0.6,0.6-1.4,1.1-2.3,1.4c-0.9,0.3-1.9,0.5-3,0.5H3.8v7.1L0,26.1L0,26.1z"/>
  <path d="M20.6,26.1V0.9h3.8v25.2H20.6z"/>
  <path d="M43.1,26.1V0.9h3.8v10.3h6.4V0.9h3.8v25.2h-3.8V15h-6.4v11.1H43.1z"/>
  <path d="M63.1,26.1V0.9h8.9c1.1,0,2.1,0.1,3,0.4c0.9,0.3,1.7,0.7,2.4,1.2c0.7,0.5,1.2,1.2,1.6,2c0.4,0.8,0.6,1.7,0.6,2.7
	c0,1-0.2,1.9-0.5,2.8c-0.4,0.8-0.9,1.6-1.5,2.2c-0.6,0.6-1.4,1.1-2.3,1.4c-0.9,0.3-1.9,0.5-3,0.5h-5.1v7.1H63.1z M66.9,15.8V13.5
	h2.4c0.8,0,1.4,0.1,1.8,0.2c0.4,0.2,0.7,0.3,1,0.6c0.2,0.3,0.4,0.6,0.5,1c0.1,0.4,0.1,0.8,0.1,1.3c0,0.6-0.1,1.1-0.2,1.6
	c-0.1,0.5-0.4,0.9-0.7,1.2c-0.3,0.3-0.7,0.6-1.2,0.7c-0.5,0.1-1.1,0.2-1.8,0.2h-2.4V15.8z"/>
  <polygon points="96.2,0.9 91.3,26.1 87.2,26.1 82.3,0.9 86.5,0.9 89.2,15.5 92,0.9 "/>
  <path d="M100,0.9v25.2h-3.8V0.9H100z"/>
</svg>