<?xml version="1.0" standalone="no"?>
<!DOCTYPE svg PUBLIC "-//W3C//DTD SVG 1.1//EN" "http://www.w3.org/Graphics/SVG/1.1/DTD/svg11.dtd">
<svg xmlns="http://www.w3.org/2000/svg" id="Layer_1" version="1.1" viewBox="0 0 612 792" width="612" height="792">
  <!-- Generator: Adobe Illustrator 29.1.0, SVG Export Plug-In . SVG Version: 2.1.0 Build 142)  -->
  <defs>
    <style>
      .st0 {
        fill: #87dbf9;
      }

      .st1 {
        fill: #8cc53e;
      }

      .st2 {
        fill: #f5f6f5;
      }

      .st3 {
        fill: #28b0e4;
      }
    </style>
  </defs>
  <path class="st1" d="M310.4,131c.9,3.1,3.4,2.3,5.7,2.6,24.3,3,48.3,7.2,71.4,15.3,103.5,35.8,186.8,164.9,183,273.6-2.8,81.3-59.3,186.9-133.1,223.9-8.5,4.3-20.9,10-30.2,9.4,2.1-4,6.3-5.9,8.7-9.1,8-10.5,14.2-27.2,22-36.6,27.2-32.7,55.9-49,75.3-91.8,4.8-10.5,9.8-25.2,9.4-36.6-11.7,15.8-22.5,32.6-35.7,47.2-3.6,4-11.4,12-15.3,15.3-1.4,1.2-2,3.1-4.5,2.5,11.3-32.8,17.7-66.8,21.7-101.4,1-8.5.2-19.3,1.6-27.7,1-5.8,6.6-14.3,8.7-20.7,7.6-23.2,8.8-53.1,6.3-77.2l-2.9,1.6-18.8,71.1c-1.2-18-4.4-34.6-10.2-51.7-4-11.9-11.1-29.4-17.2-40.2-.6-1-5.2-9.6-7.1-7.6,8.8,40.2,22.6,79.9,19.1,121.7l-5.1,55.5c-6.4-3.4-10.6-10.7-14.5-16.7-13.8-20.7-23.5-43.9-34.9-65.9-1.6-3.1-1.7-2.5-1.6.3.3,23.6,16.3,57.5,27.4,78.4,2.7,5.1,13.7,20.4,14.5,23.9s-.7,9.6-1.4,13.4c-3.6,19.9-13.7,42.7-24.1,60-3.1,5.2-13.9,22.3-17.5,25.6-1.2,1-1.4,1.3-3.1.6-11.4-4.4-40.9-87.5-47.7-102.8-.7-1.6-.6-3.8-2.9-4.1.7,44.9,21,87,37,128.1l-34,42.6c-5,1.7-19.8-10.2-24-13.9-40.9-36-67.3-108.8-60.6-162.5,7.3-58.7,46.1-82.8,78.3-125.7,27.6-36.8,31.1-60.3,21.8-105.8-10.9-53.5-46.4-93.9-96.3-114.7h30.6,0Z"/>
  <path class="st3" d="M40.1,363.1l40.6-9.1,3.8-33.3c-9.3-9.3-18.2-20.7-29.1-27.7l12.3-25.3,41,.9,15.5-29.8-14.7-36.2,19.4-17.7c3.3-.6,28.8,15.7,34.9,17.1,1.9.4,1.9,0,3.2-.6,6.8-3.1,17.1-14.9,24.6-18.9,2-6.8-4.1-35.7.2-39.3,1-.8,22.5-9.1,23.9-9.4,1.1-.2,2.1-.5,3.2,0l23.5,26.6c8.2.6,19.7-5.1,27.5-3.6,3.4.7,13.8,6.1,17.6,8,32.3,16.8,64.4,49.7,61.2,88.6l-33-6.5c-1.9-3.1,2.3-15.3-2.1-18.9l-5.9,18.9-13.9-.4c-2.7-14.1-4.2-28.6-6.3-42.8-.4-2.8-.1-6.5-1.9-8.9-1.2,0-.6,7.3-.6,8.9,0,5.9,0,43.6-2.5,45.3l-25.4,5.5-11.6-21.5,3.6,25.9-11.7,5.8c-1.8-.5-11.6-17.6-13.8-20.8-.9-1.4-2.8-1.8-3.7-3-.5-.7-5.6-15-8.9-11.8l17.7,43.1c-5.5.7-14.1,13.2-17.3,14.1-4.8,1.3-11.1-9.2-16.9-8.8l9.9,15.9-6.8,10.9c-5.1,1.3-24.8-15.4-32.4-15.4l11.6,12,13.8,11.7-9,20.8-20.3-1.1,16.5,9.1-4.4,13.9h-47.8l45,9.2c1.1.2,1.7.8,2,1.9,1.1,3.2-2.9,20.5-1.3,25.8-6,1.5-12.7,1.7-18.5,3.8-1.8.6-2.2-.5-1.8,2.7,12.5,2.6,26.3-2.9,23.7,15.4l-41.5,14.6c.6,2.5,40.7-5,45.7-4.3l8.9,22-13.8,10.4c1.9,2.8,2.4,1.1,4.4.6,4.3-1,8.2-3,12.2-4.5l11.1,12.8-26.5,24.8c7.4,1.7,27.2-18.6,32.3-17.6l17.2,16-7.5,22.1c2.3,2.5,12.6-16,14.8-16.4l13.1,6.3-10.1,39.4c3.9.9,2.7-5,3.9-7.9.4-1,4.2-5.9,4.9-7.1,1.5-2.9,2.4-10.8,6.5-10.5v18.5c0,5.3,11.6,39.9,14.3,46.9,3.2,8.2,7.4,16,11.2,23.9l-34.8-3.6-24.7,25.1c-1.6.4-24.7-5.6-25.9-6.8-3.4-3.3.2-37.9-1.5-45.1l-24.6-15.6-36.7,15.2-19.5-19c-1.4-2.9,14.1-28.1,15.5-34.4.4-1.7.6-1.9,0-3.7s-14.2-22.4-15.5-22.8l-40-.8c-1.2-.7-11.4-22.7-11.5-24.3,0-1.5.1-2.7,1.2-3.8l26.6-23.1-6.8-36.1-37.7-10.2v-31.9h0ZM165,287.8c.9-1.8-.8-3.4-1.3-2.5-.9,1.8.8,3.4,1.3,2.5Z"/>
  <path class="st0" d="M287.5,203.7h-2.6c0-1.7-.5-8.9.6-8.9,1.8,2.5,1.5,6.1,1.9,8.9h0Z"/>
  <path class="st2" d="M165,287.8c-.4.9-2.2-.7-1.3-2.5.4-.9,2.2.7,1.3,2.5Z"/>
</svg>