<svg id="Layer_1" data-name="Layer 1" xmlns="http://www.w3.org/2000/svg" viewBox="0 0 258.3 52.4"><defs><style>.cls-1{fill:#c21f2f;}.cls-2{fill:#262626;}</style></defs><path class="cls-1" d="M52.4,26.2,26.2,13.1,0,26.2l26.2,13Z"/><path class="cls-2" d="M86.4,41.6a12.2,12.2,0,0,1-7.1-2.2L78.8,41a9.3,9.3,0,0,0,6.3,2.6,8.1,8.1,0,0,0,8.4-8.2,8.3,8.3,0,0,0-8.4-8.4,8.1,8.1,0,0,0-8.4,8.2v.2h5.2v-.2a3.1,3.1,0,0,1,3.2-3.2,3.2,3.2,0,0,1,3.2,3.2,3.1,3.1,0,0,1-3.2,3.2,4.3,4.3,0,0,1-3.7-2H73.2a8.4,8.4,0,0,0,1,4.2,8.1,8.1,0,0,0,6.9,4.2,11.3,11.3,0,0,0,5.2-1.2Z"/><path class="cls-2" d="M100.3,27.4h5.2V44.5h-5.2Z"/><path class="cls-2" d="M110.5,35.9a8.4,8.4,0,0,0,8.4-8.5,8.3,8.3,0,0,0-8.4-8.4,8.4,8.4,0,0,0-8.4,8.4,8.5,8.5,0,0,0,8.4,8.5Zm0-13.6a3.2,3.2,0,0,1,3.2,3.2,3.2,3.2,0,0,1-3.2,3.2,3.2,3.2,0,0,1-3.2-3.2,3.2,3.2,0,0,1,3.2-3.2Z"/><path class="cls-2" d="M125.7,27.4h5.2V41.6a12.2,12.2,0,0,1-7.1-2.2l-.5,1.6a9.3,9.3,0,0,0,6.3,2.6,8.1,8.1,0,0,0,8.4-8.2,8.3,8.3,0,0,0-8.4-8.4,8.1,8.1,0,0,0-8.4,8.2v.2h5.2v-.2a3.1,3.1,0,0,1,3.2-3.2,3.2,3.2,0,0,1,3.2,3.2,3.1,3.1,0,0,1-3.2,3.2,4.3,4.3,0,0,1-3.7-2H118.5a8.4,8.4,0,0,0,1,4.2,8.1,8.1,0,0,0,6.9,4.2,11.3,11.3,0,0,0,5.2-1.2Z"/><path class="cls-2" d="M150.1,27.4h4.5l4.8,10.1,4.8-10.1h4.5V44.5h-5.2V32.3l-4.1,8.8h-1l-4.1-8.8V44.5h-5.2Z"/><path class="cls-2" d="M188.1,27.4h5.2V44.5h-5.2Z"/><path class="cls-2" d="M209.9,36.1a8.7,8.7,0,0,1-8.8-8.7,8.6,8.6,0,0,1,8.6-8.6,8.7,8.7,0,0,1,8.8,8.7,8.6,8.6,0,0,1-8.6,8.6Zm-3.6-8.7a3.6,3.6,0,0,0,3.6,3.6,3.6,3.6,0,0,0,3.6-3.6,3.6,3.6,0,0,0-3.6-3.6,3.6,3.6,0,0,0-3.6,3.6Z"/><path class="cls-2" d="M220.1,44.5V27.4h5.2v9.8l7.9-9.8h6.6l-7.2,8.5,7.8,8.6h-6.8l-8.5-9.6v9.6Z"/><path class="cls-2" d="M258.3,41.6a12.2,12.2,0,0,1-7.1-2.2l-.5,1.6a9.3,9.3,0,0,0,6.3,2.6,8.1,8.1,0,0,0,8.4-8.2,8.3,8.3,0,0,0-8.4-8.4,8.1,8.1,0,0,0-8.4,8.2v.2h5.2v-.2a3.1,3.1,0,0,1,3.2-3.2,3.2,3.2,0,0,1,3.2,3.2,3.1,3.1,0,0,1-3.2,3.2,4.3,4.3,0,0,1-3.7-2h-8.2a8.4,8.4,0,0,0,1,4.2,8.1,8.1,0,0,0,6.9,4.2,11.3,11.3,0,0,0,5.2-1.2Z"/></svg>